<?xml version='1.0' encoding='utf-8'?>
<svg xmlns:xlink="http://www.w3.org/1999/xlink" xmlns="http://www.w3.org/2000/svg" enable-background="new 0 0 1920 1273" version="1.1" viewBox="0 0 1920 1273"> <g opacity=".3"> <g enable-background="new "> <g enable-background="new "> <defs> <path id="i" d="m571.32 337.57 27.418-36.078c2.199-2.893 4.469-5.738 6.809-8.531l-27.418 36.078c-2.34 2.793-4.61 5.637-6.809 8.531z" enable-background="new "/> </defs> <clipPath id="h"> <use overflow="visible" xlink:href="#i"/> </clipPath> <g clip-path="url(#h)" enable-background="new "> <path d="m571.32 337.57 27.418-36.078c2.199-2.893 4.469-5.738 6.809-8.531l-27.418 36.078c-2.34 2.793-4.61 5.637-6.809 8.531" fill="#155976"/> </g> <defs> <path id="g" d="m578.12 329.04 27.418-36.078c-36.813 65.302-42.985 149.89-9.447 229.55 39.33 93.439 122.76 155.13 211.61 166.92l-27.418 36.078c-88.852-11.787-172.28-73.482-211.61-166.92-33.537-79.661-27.366-164.25 9.447-229.55z" enable-background="new "/> </defs> <clipPath id="f"> <use overflow="visible" xlink:href="#g"/> </clipPath> <g clip-path="url(#f)" enable-background="new "> <path d="m578.12 329.04 27.418-36.078c-36.813 65.302-42.985 149.89-9.447 229.55 39.33 93.439 122.76 155.13 211.61 166.92l-27.418 36.078c-88.852-11.787-172.28-73.482-211.61-166.92-33.537-79.661-27.366-164.25 9.447-229.55" fill="#155976"/> </g> </g> <path d="m780.29 725.51c-99.423 2.943-196.2-55.698-237.17-153.01-36.014-85.534-19.438-178.48 35.006-243.46-36.813 65.302-42.985 149.89-9.447 229.55 39.331 93.439 122.76 155.14 211.61 166.92z" fill="#26A0D3"/> </g> </g> <g enable-background="new "> <g enable-background="new "> <defs> <path id="e" d="m996.09 693.41-33.2 30.84c56.66-52.632 91.708-128.29 90.957-212.94-1.443-162.78-134.79-298.16-297.27-301.72-77.989-1.71-148.74 27.266-201.06 75.872l33.2-30.84c52.324-48.605 123.07-77.582 201.06-75.872 162.48 3.563 295.82 138.94 297.27 301.72 0.75 84.65-34.298 160.31-90.957 212.94z" enable-background="new "/> </defs> <clipPath id="d"> <use overflow="visible" xlink:href="#e"/> </clipPath> <g clip-path="url(#d)" enable-background="new "> <path d="m996.09 693.41-33.2 30.84c56.66-52.632 91.708-128.29 90.957-212.94-1.443-162.78-134.79-298.16-297.27-301.72-77.989-1.71-148.74 27.266-201.06 75.872l33.2-30.84c52.324-48.605 123.07-77.582 201.06-75.872 162.48 3.563 295.82 138.94 297.27 301.72 0.75 84.65-34.298 160.31-90.957 212.94" fill="#531414"/> </g> <defs> <path id="c" d="m1486.9 1212.3-33.2 30.84c-7.777 7.224-17.793 10.703-27.843 10.482-10.465-0.229-20.965-4.47-29.007-12.665l33.2-30.84c8.042 8.195 18.542 12.435 29.007 12.665 10.05 0.22 20.067-3.258 27.843-10.482z" enable-background="new "/> </defs> <clipPath id="b"> <use overflow="visible" xlink:href="#c"/> </clipPath> <g clip-path="url(#b)" enable-background="new "> <path d="m1486.9 1212.3-33.2 30.84c-7.777 7.224-17.794 10.703-27.843 10.482-10.465-0.229-20.965-4.47-29.007-12.665l33.2-30.84c8.042 8.195 18.542 12.435 29.007 12.665 10.05 0.22 20.067-3.258 27.843-10.482" fill="#531414"/> </g> </g> <polygon points="1430.1 1210.1 1396.9 1240.9 978.32 816.13 1011.5 785.29" fill="#501414"/> <g enable-background="new "> <defs> <path id="a" d="m500.09 225.76 33.2-30.84c-72.08 66.957-116.67 163.2-115.72 270.87 1.836 207.13 171.48 379.29 378.15 383.82 80.536 1.766 155-22.17 215.8-64.32l-33.2 30.84c-60.794 42.15-135.26 66.086-215.8 64.32-206.67-4.532-376.32-176.69-378.15-383.82-0.954-107.67 43.638-203.92 115.72-270.87z" enable-background="new "/> </defs> <clipPath id="j"> <use overflow="visible" xlink:href="#a"/> </clipPath> <g clip-path="url(#j)" enable-background="new "> <path d="m1011.5 785.29-33.2 30.84c-60.794 42.151-135.26 66.086-215.8 64.32-206.67-4.532-376.32-176.69-378.15-383.82-0.954-107.67 43.637-203.92 115.72-270.87l33.2-30.84c-72.08 66.957-116.67 163.2-115.72 270.87 1.836 207.13 171.48 379.29 378.15 383.82 80.537 1.766 155.01-22.17 215.8-64.32" fill="#531414"/> </g> </g> <path d="m1487.4 1153.4c16.116 16.359 16.346 42.296 0.513 57.922-7.902 7.845-18.331 11.627-28.795 11.397-10.465-0.229-20.965-4.47-29.007-12.665l-418.56-424.8c-60.794 42.151-135.26 66.086-215.8 64.32-206.67-4.532-376.32-176.69-378.15-383.82-1.835-207.1 164.83-371.91 371.5-367.38 206.7 4.532 376.32 176.72 378.15 383.82 0.859 96.909-35.162 184.53-94.9 249.9l415.06 421.31zm-692.36-384.17c162.48 3.563 293.48-125.98 292.03-288.8-1.443-162.78-134.79-298.16-297.27-301.72-162.45-3.562-293.48 126.01-292.03 288.8 1.443 162.82 134.82 298.16 297.27 301.72" fill="#952424"/> </g> </svg>